# xmcd
#
# Track frame offsets: 
#        150
#        19366
#        28345
#        40699
#        58615
#        66634
#        85283
#        99720
#        118869
#        135114
#        156525
#        176592
#        193977
#
# Disc length: 2825 seconds
#
# Revision: 0
# Processed by: cddbd v1.5.2PL0 Copyright (c) Steve Scherf et al.
# Submitted via: ExactAudioCopy v0.99pb3
#
DISCID=c00b070d
DTITLE=Watermelon Slim - Escape From The Chicken Coop
DYEAR=2009
DGENRE=Blues
TTITLE0=Caterpillar Whine
TTITLE1=Skinny Women And Fat Cigars
TTITLE2=You See Me Like I See You
TTITLE3=Wreck On The Highway
TTITLE4=Friends On The Porch
TTITLE5=Should Have Done More
TTITLE6=Hank Williams You Wrote My Life
TTITLE7=America's Wives
TTITLE8=The Way I Am
TTITLE9=It's Never Too Hard To Be Humble
TTITLE10=300 Miles
TTITLE11=Truck Drivin' Songs
TTITLE12=18, 18 Wheeler
EXTD=
EXTT0=
EXTT1=
EXTT2=
EXTT3=
EXTT4=
EXTT5=
EXTT6=
EXTT7=
EXTT8=
EXTT9=
EXTT10=
EXTT11=
EXTT12=
PLAYORDER=
